<svg id="Layer_1" data-name="Layer 1" xmlns="http://www.w3.org/2000/svg" viewBox="0 0 1491.6 345.83"><defs><style>.cls-1{fill:#e74d10;}.cls-2{fill:#fff;}</style></defs><rect class="cls-1" x="-26.93" y="-33.43" width="1545.47" height="412.69"/><path d="M655,161.09l-.14-60.3-29.57,49.67H614.85l-29.43-48.38v59H563.6V60.59h19.23l37.62,62.46,37-62.46h19.09l.29,100.5Z"/><path d="M721.15,156.07a50.14,50.14,0,0,1-19.67-18.6,50.8,50.8,0,0,1-7.1-26.63,50.82,50.82,0,0,1,7.1-26.63,50.11,50.11,0,0,1,19.67-18.59,62.18,62.18,0,0,1,56.35,0,50.29,50.29,0,0,1,26.85,45.22,50.32,50.32,0,0,1-26.85,45.23,62.26,62.26,0,0,1-56.35,0Zm44.29-17.16a29.29,29.29,0,0,0,11.27-11.41,33.58,33.58,0,0,0,4.1-16.66,33.52,33.52,0,0,0-4.1-16.65,29.32,29.32,0,0,0-11.27-11.42,33.65,33.65,0,0,0-32.16,0A29.36,29.36,0,0,0,722,94.19a33.52,33.52,0,0,0-4.1,16.65A33.58,33.58,0,0,0,722,127.5a29.34,29.34,0,0,0,11.26,11.41,33.65,33.65,0,0,0,32.16,0Z"/><path d="M914,60.59v100.5H894.94l-50.1-61v61h-23V60.59H841.1l50,61v-61Z"/><path d="M958.69,79.54H926.53v-19h87.57v19H981.94v81.55H958.69Z"/><path d="M1026.59,60.59h23.26v100.5h-23.26Z"/><path d="M1083.65,159.58q-11.13-3.22-17.87-8.4l7.89-17.51a53.44,53.44,0,0,0,15.37,7.6,57.48,57.48,0,0,0,17.8,2.88q9.9,0,14.64-2.94c3.16-2,4.74-4.58,4.74-7.83a7.51,7.51,0,0,0-2.8-6,21.29,21.29,0,0,0-7.18-3.8q-4.38-1.44-11.85-3.16a163.79,163.79,0,0,1-18.8-5.46,30.44,30.44,0,0,1-12.56-8.75q-5.25-6-5.24-16.08a28,28,0,0,1,4.74-15.87q4.73-7.1,14.28-11.26t23.33-4.17a77.38,77.38,0,0,1,18.81,2.3,55.51,55.51,0,0,1,16.07,6.6l-7.17,17.66q-13.93-7.89-27.86-7.9-9.75,0-14.42,3.16A9.65,9.65,0,0,0,1090.9,89q0,5.16,5.38,7.68t16.44,5a163.43,163.43,0,0,1,18.81,5.46,31.17,31.17,0,0,1,12.56,8.61q5.25,5.9,5.24,15.94a27.42,27.42,0,0,1-4.81,15.72q-4.82,7.11-14.43,11.27t-23.4,4.16A82.37,82.37,0,0,1,1083.65,159.58Z"/><path d="M1175.24,159.58q-11.13-3.22-17.87-8.4l7.9-17.51a53.25,53.25,0,0,0,15.36,7.6,57.48,57.48,0,0,0,17.8,2.88q9.9,0,14.64-2.94c3.16-2,4.74-4.58,4.74-7.83a7.48,7.48,0,0,0-2.8-6,21.29,21.29,0,0,0-7.18-3.8q-4.38-1.44-11.84-3.16a163.43,163.43,0,0,1-18.81-5.46,30.44,30.44,0,0,1-12.56-8.75q-5.25-6-5.24-16.08a28,28,0,0,1,4.74-15.87q4.73-7.1,14.28-11.26t23.33-4.17a77.38,77.38,0,0,1,18.81,2.3,55.69,55.69,0,0,1,16.08,6.6l-7.18,17.66q-13.92-7.89-27.85-7.9-9.77,0-14.43,3.16a9.65,9.65,0,0,0-4.67,8.33q0,5.16,5.39,7.68t16.43,5a163.43,163.43,0,0,1,18.81,5.46,31.17,31.17,0,0,1,12.56,8.61q5.25,5.9,5.24,15.94a27.42,27.42,0,0,1-4.81,15.72q-4.8,7.11-14.42,11.27t-23.4,4.16A82.39,82.39,0,0,1,1175.24,159.58Z"/><path d="M1277.32,156.07a50,50,0,0,1-19.67-18.6,50.71,50.71,0,0,1-7.11-26.63,50.74,50.74,0,0,1,7.11-26.63,50,50,0,0,1,19.67-18.59,62.16,62.16,0,0,1,56.34,0,50.29,50.29,0,0,1,26.85,45.22,50.32,50.32,0,0,1-26.85,45.23,62.24,62.24,0,0,1-56.34,0Zm44.28-17.16a29.39,29.39,0,0,0,11.28-11.41,33.68,33.68,0,0,0,4.09-16.66,33.62,33.62,0,0,0-4.09-16.65,29.41,29.41,0,0,0-11.28-11.42,33.63,33.63,0,0,0-32.15,0,29.39,29.39,0,0,0-11.27,11.42,33.51,33.51,0,0,0-4.09,16.65,33.58,33.58,0,0,0,4.09,16.66,29.36,29.36,0,0,0,11.27,11.41,33.63,33.63,0,0,0,32.15,0Z"/><path d="M1378,60.59h23.26v81.55h50.39v19H1378Z"/><path d="M607.85,233.34V244H563.53V186.72h43.26v10.63h-30.1v12.43h26.58v10.31H576.69v13.25Z"/><path d="M631.44,243.11a30.72,30.72,0,0,1-10.18-4.79l4.5-10a30.45,30.45,0,0,0,8.75,4.34,32.88,32.88,0,0,0,10.14,1.64q5.64,0,8.34-1.68a5.06,5.06,0,0,0,2.7-4.46,4.24,4.24,0,0,0-1.6-3.39,12.12,12.12,0,0,0-4.08-2.17q-2.5-.81-6.75-1.8a93.2,93.2,0,0,1-10.71-3.11,17.35,17.35,0,0,1-7.16-5q-3-3.45-3-9.16a16,16,0,0,1,2.69-9,18.18,18.18,0,0,1,8.14-6.42,33.26,33.26,0,0,1,13.29-2.37,44.11,44.11,0,0,1,10.71,1.31,31.77,31.77,0,0,1,9.16,3.76l-4.09,10.06a31.86,31.86,0,0,0-15.86-4.5q-5.57,0-8.22,1.8a5.5,5.5,0,0,0-2.66,4.74,4.65,4.65,0,0,0,3.07,4.38,48.48,48.48,0,0,0,9.36,2.82,91.45,91.45,0,0,1,10.72,3.11,17.7,17.7,0,0,1,7.15,4.9q3,3.36,3,9.08a15.72,15.72,0,0,1-2.74,9,18.48,18.48,0,0,1-8.22,6.41A33.56,33.56,0,0,1,644.57,245,47.11,47.11,0,0,1,631.44,243.11Z"/><path d="M691,243.11a30.63,30.63,0,0,1-10.18-4.79l4.49-10a30.58,30.58,0,0,0,8.75,4.34,32.9,32.9,0,0,0,10.15,1.64c3.75,0,6.54-.56,8.34-1.68a5.07,5.07,0,0,0,2.69-4.46,4.26,4.26,0,0,0-1.59-3.39,12.17,12.17,0,0,0-4.09-2.17q-2.49-.81-6.75-1.8a93.2,93.2,0,0,1-10.71-3.11,17.35,17.35,0,0,1-7.16-5q-3-3.45-3-9.16a15.93,15.93,0,0,1,2.7-9,18.13,18.13,0,0,1,8.14-6.42,33.19,33.19,0,0,1,13.29-2.37,44.11,44.11,0,0,1,10.71,1.31,31.77,31.77,0,0,1,9.16,3.76l-4.09,10.06a31.93,31.93,0,0,0-15.87-4.5q-5.55,0-8.22,1.8a5.49,5.49,0,0,0-2.65,4.74,4.65,4.65,0,0,0,3.06,4.38,48.85,48.85,0,0,0,9.37,2.82,91.22,91.22,0,0,1,10.71,3.11,17.74,17.74,0,0,1,7.16,4.9q3,3.36,3,9.08a15.65,15.65,0,0,1-2.74,9,18.43,18.43,0,0,1-8.22,6.41A33.49,33.49,0,0,1,704.1,245,47,47,0,0,1,691,243.11Z"/><path d="M789.15,233.34V244H744.83V186.72h43.26v10.63H758v12.43h26.58v10.31H758v13.25Z"/><path d="M859.56,186.72V244H848.69l-28.55-34.75V244H807.06V186.72h11l28.46,34.76V186.72Z"/><path d="M892.35,197.51H874V186.72h49.88v10.79H905.6V244H892.35Z"/><path d="M938.4,186.72h13.24V244H938.4Z"/><path d="M1010.28,231.7H983.7L978.63,244H965.05l25.52-57.24h13.08l25.6,57.24h-13.91Zm-4.18-10.06L997,199.72,988,221.64Z"/><path d="M1042.58,186.72h13.24v46.45h28.71V244h-42Z"/><path d="M1104.69,243.11a30.63,30.63,0,0,1-10.18-4.79l4.49-10a30.58,30.58,0,0,0,8.75,4.34,32.9,32.9,0,0,0,10.15,1.64c3.75,0,6.54-.56,8.34-1.68a5.07,5.07,0,0,0,2.69-4.46,4.26,4.26,0,0,0-1.59-3.39,12.17,12.17,0,0,0-4.09-2.17q-2.49-.81-6.75-1.8a93.2,93.2,0,0,1-10.71-3.11,17.35,17.35,0,0,1-7.16-5q-3-3.45-3-9.16a15.93,15.93,0,0,1,2.7-9,18.13,18.13,0,0,1,8.14-6.42,33.19,33.19,0,0,1,13.29-2.37,44.11,44.11,0,0,1,10.71,1.31,31.77,31.77,0,0,1,9.16,3.76l-4.09,10.06a31.93,31.93,0,0,0-15.87-4.5q-5.55,0-8.22,1.8a5.49,5.49,0,0,0-2.65,4.74,4.65,4.65,0,0,0,3.06,4.38,48.85,48.85,0,0,0,9.37,2.82,91.22,91.22,0,0,1,10.71,3.11,17.74,17.74,0,0,1,7.16,4.9q3,3.36,3,9.08a15.65,15.65,0,0,1-2.74,9,18.43,18.43,0,0,1-8.22,6.41,33.49,33.49,0,0,1-13.33,2.38A47,47,0,0,1,1104.69,243.11Z"/><rect x="1166" y="209.94" width="284.87" height="17.3"/><polygon class="cls-2" points="326.58 62.92 355.26 105.46 484.47 105.46 484.47 62.92 326.58 62.92"/><polygon class="cls-2" points="411.73 189.29 484.47 189.29 484.47 146.74 383.06 146.74 411.73 189.29"/><polygon class="cls-2" points="369.19 283.01 484.47 283.01 484.47 240.47 399.38 240.47 369.19 283.01"/><polygon points="401.19 205.58 390.18 189.28 361.5 146.74 333.71 105.45 305.03 62.91 269.92 109.74 305.03 160.41 325.07 189.28 333.5 201.49 279.16 283.01 347.6 283.01 401.85 206.55 401.19 205.58"/><polygon points="126.25 153.53 39.92 283.01 108.36 283.01 162.62 206.55 126.25 153.53"/><polygon points="188.52 62.89 153.37 109.75 216.98 201.48 162.62 283.01 231.06 283.01 285.32 206.55 188.52 62.89"/><path d="M568.61,263.8V272h13v4.24h-13v10.33h-5v-27h19.69v4.21Z"/><path d="M617.21,280.33H603.72l-2.66,6.24H595.9l12.14-27H613l12.18,27h-5.24Zm-1.65-3.93-5.09-11.79-5.05,11.79Z"/><path d="M646,285.17a13.35,13.35,0,0,1-5.16-4.95,14.48,14.48,0,0,1,0-14.27,13.47,13.47,0,0,1,5.18-4.95,16.24,16.24,0,0,1,13.44-.63,12.18,12.18,0,0,1,4.62,3.35l-3.24,3a9.45,9.45,0,0,0-7.21-3.16,10.14,10.14,0,0,0-5,1.22,8.75,8.75,0,0,0-3.43,3.37,10.36,10.36,0,0,0,0,9.79,8.75,8.75,0,0,0,3.43,3.37,10.13,10.13,0,0,0,5,1.21,9.38,9.38,0,0,0,7.21-3.19l3.24,3.08a12.39,12.39,0,0,1-4.64,3.35,15.56,15.56,0,0,1-6.07,1.16A15.27,15.27,0,0,1,646,285.17Z"/><path d="M681.66,259.59h5v27h-5Z"/><path d="M706.67,259.59h5v22.74h14.11v4.24H706.67Z"/><path d="M742.48,259.59h5v27h-5Z"/><path d="M773,263.83h-9v-4.24h22.9v4.24H778v22.74h-5Z"/><path d="M814.67,277.05v9.52h-5v-9.44l-10.6-17.54h5.36l7.9,13.15,8-13.15h4.93Z"/><path d="M866.91,286.07a12.48,12.48,0,0,1-4.6-2.35l1.73-3.89a13.73,13.73,0,0,0,4.07,2.14,14.88,14.88,0,0,0,4.84.83,8.29,8.29,0,0,0,4.49-1,2.91,2.91,0,0,0,1.48-2.54,2.44,2.44,0,0,0-.83-1.91,5.75,5.75,0,0,0-2.1-1.17c-.85-.29-2-.61-3.47-1a40.7,40.7,0,0,1-5-1.46,8.13,8.13,0,0,1-3.27-2.3,6.12,6.12,0,0,1-1.37-4.21,7.18,7.18,0,0,1,1.21-4.07,8.23,8.23,0,0,1,3.66-2.91,14.83,14.83,0,0,1,6-1.08,19.36,19.36,0,0,1,4.85.61,13.67,13.67,0,0,1,4.13,1.78l-1.59,3.89a15.73,15.73,0,0,0-3.69-1.58,13.91,13.91,0,0,0-3.74-.54,7.77,7.77,0,0,0-4.41,1,3.09,3.09,0,0,0-1.45,2.66,2.42,2.42,0,0,0,.83,1.89,6,6,0,0,0,2.1,1.16c.84.28,2,.6,3.47,1a36.57,36.57,0,0,1,4.93,1.45,8.44,8.44,0,0,1,3.3,2.29,6.06,6.06,0,0,1,1.37,4.16,7.12,7.12,0,0,1-1.22,4.05,8.27,8.27,0,0,1-3.68,2.89,15,15,0,0,1-6,1.08A20.63,20.63,0,0,1,866.91,286.07Z"/><path d="M904.44,283.82q-3.12-3.15-3.12-9V259.59h5v15q0,7.94,6.86,7.93t6.82-7.93v-15h4.93v15.23q0,5.85-3.1,9c-2.07,2.09-5,3.14-8.69,3.14S906.52,285.91,904.44,283.82Z"/><path d="M961.89,260.75a9,9,0,0,1,4,3.31,10.19,10.19,0,0,1,0,10.24,8.89,8.89,0,0,1-4,3.33,15,15,0,0,1-6.11,1.16h-6.09v7.78h-5v-27h11.1A15,15,0,0,1,961.89,260.75Zm-1.37,12.41a5.49,5.49,0,0,0,0-7.94,7.73,7.73,0,0,0-5-1.39h-5.86v10.72h5.86A7.67,7.67,0,0,0,960.52,273.16Z"/><path d="M1002.2,260.75a9,9,0,0,1,4,3.31,10.19,10.19,0,0,1,0,10.24,8.86,8.86,0,0,1-4,3.33,14.92,14.92,0,0,1-6.1,1.16H990v7.78h-5v-27H996.1A14.92,14.92,0,0,1,1002.2,260.75Zm-1.36,12.41a5.51,5.51,0,0,0,0-7.94,7.73,7.73,0,0,0-5-1.39H990v10.72h5.86A7.67,7.67,0,0,0,1000.84,273.16Z"/><path d="M1030.86,285.17a13.37,13.37,0,0,1-5.2-5,14.34,14.34,0,0,1,0-14.23,13.3,13.3,0,0,1,5.2-5,16.36,16.36,0,0,1,14.88,0,13.39,13.39,0,0,1,5.2,4.95,14.41,14.41,0,0,1,0,14.27,13.39,13.39,0,0,1-5.2,4.95,16.36,16.36,0,0,1-14.88,0Zm12.3-3.82a8.77,8.77,0,0,0,3.39-3.39,10.28,10.28,0,0,0,0-9.75,8.7,8.7,0,0,0-3.39-3.39,10.29,10.29,0,0,0-9.72,0,8.77,8.77,0,0,0-3.39,3.39,10.28,10.28,0,0,0,0,9.75,8.83,8.83,0,0,0,3.39,3.39,10.37,10.37,0,0,0,9.72,0Z"/><path d="M1088.53,286.57l-5.52-7.9a9,9,0,0,1-1,0h-6.09v7.86h-5v-27H1082a14.93,14.93,0,0,1,6.11,1.16,8.87,8.87,0,0,1,4,3.31,10.09,10.09,0,0,1-.09,10.37,8.81,8.81,0,0,1-4.26,3.28l6.2,8.86Zm-1.81-21.35a7.76,7.76,0,0,0-5-1.39h-5.86v10.76h5.86a7.64,7.64,0,0,0,5-1.41,4.93,4.93,0,0,0,1.69-4A4.86,4.86,0,0,0,1086.72,265.22Z"/><path d="M1116.85,263.83h-8.94v-4.24h22.9v4.24h-9v22.74h-5Z"/><path d="M1173,286.07a12.48,12.48,0,0,1-4.6-2.35l1.73-3.89a13.6,13.6,0,0,0,4.07,2.14,14.84,14.84,0,0,0,4.84.83,8.29,8.29,0,0,0,4.49-1,2.91,2.91,0,0,0,1.48-2.54,2.48,2.48,0,0,0-.83-1.91,5.75,5.75,0,0,0-2.1-1.17c-.85-.29-2-.61-3.47-1a40.7,40.7,0,0,1-5-1.46,8.17,8.17,0,0,1-3.28-2.3,6.16,6.16,0,0,1-1.37-4.21,7.19,7.19,0,0,1,1.22-4.07,8.23,8.23,0,0,1,3.66-2.91,14.83,14.83,0,0,1,6-1.08,19.36,19.36,0,0,1,4.85.61,13.5,13.5,0,0,1,4.12,1.78l-1.58,3.89a15.63,15.63,0,0,0-3.7-1.58,13.79,13.79,0,0,0-3.73-.54,7.83,7.83,0,0,0-4.42,1,3.1,3.1,0,0,0-1.44,2.66,2.39,2.39,0,0,0,.83,1.89,6,6,0,0,0,2.1,1.16c.84.28,2,.6,3.46,1a36.32,36.32,0,0,1,4.94,1.45,8.51,8.51,0,0,1,3.3,2.29,6.06,6.06,0,0,1,1.36,4.16,7.12,7.12,0,0,1-1.21,4.05,8.27,8.27,0,0,1-3.68,2.89,15,15,0,0,1-6,1.08A20.63,20.63,0,0,1,1173,286.07Z"/><path d="M1227.86,282.37v4.2h-20.24v-27h19.7v4.21h-14.68v7h13v4.12h-13v7.44Z"/><path d="M1263.83,286.57l-5.52-7.9a9,9,0,0,1-1,0h-6.09v7.86h-5v-27h11.1a14.93,14.93,0,0,1,6.11,1.16,8.92,8.92,0,0,1,4,3.31,9.25,9.25,0,0,1,1.39,5.13,9.12,9.12,0,0,1-1.49,5.24,8.79,8.79,0,0,1-4.25,3.28l6.2,8.86ZM1262,265.22a7.73,7.73,0,0,0-5-1.39h-5.86v10.76H1257a7.61,7.61,0,0,0,5-1.41,4.9,4.9,0,0,0,1.7-4A4.84,4.84,0,0,0,1262,265.22Z"/><path d="M1311.73,259.59l-11.75,27H1295l-11.79-27h5.43l9,20.82,9-20.82Z"/><path d="M1327.3,259.59h5v27h-5Z"/><path d="M1357.42,285.17a13.35,13.35,0,0,1-5.16-4.95,14.48,14.48,0,0,1,0-14.27,13.47,13.47,0,0,1,5.18-4.95,16.24,16.24,0,0,1,13.44-.63,12.18,12.18,0,0,1,4.62,3.35l-3.24,3a9.45,9.45,0,0,0-7.21-3.16,10.14,10.14,0,0,0-5,1.22,8.75,8.75,0,0,0-3.43,3.37,10.36,10.36,0,0,0,0,9.79,8.75,8.75,0,0,0,3.43,3.37,10.13,10.13,0,0,0,5,1.21,9.38,9.38,0,0,0,7.21-3.19l3.24,3.08a12.39,12.39,0,0,1-4.64,3.35,15.56,15.56,0,0,1-6.07,1.16A15.27,15.27,0,0,1,1357.42,285.17Z"/><path d="M1413.29,282.37v4.2h-20.23v-27h19.69v4.21h-14.68v7h13v4.12h-13v7.44Z"/><path d="M1433.93,286.07a12.48,12.48,0,0,1-4.6-2.35l1.73-3.89a13.73,13.73,0,0,0,4.07,2.14,14.88,14.88,0,0,0,4.84.83,8.29,8.29,0,0,0,4.49-1,2.91,2.91,0,0,0,1.48-2.54,2.48,2.48,0,0,0-.83-1.91,5.75,5.75,0,0,0-2.1-1.17c-.85-.29-2-.61-3.47-1a40.7,40.7,0,0,1-5-1.46,8.07,8.07,0,0,1-3.27-2.3,6.12,6.12,0,0,1-1.37-4.21,7.18,7.18,0,0,1,1.21-4.07,8.23,8.23,0,0,1,3.66-2.91,14.83,14.83,0,0,1,6-1.08,19.36,19.36,0,0,1,4.85.61,13.67,13.67,0,0,1,4.13,1.78l-1.59,3.89a15.73,15.73,0,0,0-3.69-1.58,13.91,13.91,0,0,0-3.74-.54,7.77,7.77,0,0,0-4.41,1,3.09,3.09,0,0,0-1.45,2.66,2.39,2.39,0,0,0,.83,1.89,6,6,0,0,0,2.1,1.16c.84.28,2,.6,3.47,1a36.57,36.57,0,0,1,4.93,1.45,8.44,8.44,0,0,1,3.3,2.29,6.06,6.06,0,0,1,1.37,4.16,7.12,7.12,0,0,1-1.22,4.05,8.27,8.27,0,0,1-3.68,2.89,15,15,0,0,1-6,1.08A20.63,20.63,0,0,1,1433.93,286.07Z"/></svg>